<svg xmlns="http://www.w3.org/2000/svg" viewBox="0 0 699.17 184.85"><defs><style>.a{fill:#231f20;}</style></defs><title>um_final_text_logo</title><path class="a" d="M178.53,341a37.8,37.8,0,0,1-16.5-3.4,29.14,29.14,0,0,1-11.7-10.2v49.21q0,6.2-5.2,6.2-6,0-6-6.2V241.39q0-3.4,1.2-4.8t4.6-1.4a6.47,6.47,0,0,1,4.4,1.4q1.6,1.4,1.6,4.8v58a65.91,65.91,0,0,0,.6,9.1,21.84,21.84,0,0,0,2.2,7.3,25.9,25.9,0,0,0,9.3,9.6,27.56,27.56,0,0,0,15.3,4.2,33.4,33.4,0,0,0,13.5-2.5,32.83,32.83,0,0,0,9.5-6.1,29.33,29.33,0,0,0,5.9-7.6,34.91,34.91,0,0,0,2.9-7,47.58,47.58,0,0,0,1.4-10.3q.2-5.7.2-9.3V242q0-3.6,1.2-5.2t5-1.6q5.6,0,5.6,6.4V317q0,6.6,1.8,9t5.8,2.4a12.92,12.92,0,0,0,4.8-.8,10.28,10.28,0,0,1,3.8-.8,3.53,3.53,0,0,1,2.6,1q1,1,1,4.6a6.3,6.3,0,0,1-2.8,5.4,12,12,0,0,1-4.9,1.9,36,36,0,0,1-6.1.5q-7.6,0-12.3-3.9t-5.3-13.1q-7.2,9.6-15.2,13.7A39.37,39.37,0,0,1,178.53,341Z" transform="translate(-139.12 -197.98)"/><path class="a" d="M266.35,229.39V331.81q0,4.4-2.3,6.1a10.42,10.42,0,0,1-6.3,1.7,10,10,0,0,1-6.2-1.7q-2.2-1.7-2.2-6.1V208.38q0-5.8,3.1-8.1t8.5-2.3q5.6,0,8.2,1.9a13.23,13.23,0,0,1,4.2,5.7l46.81,111.83L367,205.58a13.56,13.56,0,0,1,4.1-5.7q2.5-1.9,7.9-1.9t8.3,2.3q2.9,2.3,2.9,8.1V331.81q0,4.4-2.2,6.1a10,10,0,0,1-6.2,1.7,10.41,10.41,0,0,1-6.3-1.7q-2.3-1.7-2.3-6.1V229.19L330,331.21a12.66,12.66,0,0,1-3.6,4.8,11.9,11.9,0,0,1-13.2,0,12.65,12.65,0,0,1-3.6-4.8Z" transform="translate(-139.12 -197.98)"/><path class="a" d="M404.58,287.8a67.25,67.25,0,0,1,3.5-22.51,46.92,46.92,0,0,1,10-16.8,42.9,42.9,0,0,1,15.5-10.5,57.37,57.37,0,0,1,40,0,42.92,42.92,0,0,1,15.5,10.5,47,47,0,0,1,10,16.8,67.34,67.34,0,0,1,3.5,22.51,68.21,68.21,0,0,1-3.5,22.61,46.84,46.84,0,0,1-10,16.9,44,44,0,0,1-15.5,10.6,55.92,55.92,0,0,1-40,0,44,44,0,0,1-15.5-10.6,46.76,46.76,0,0,1-10-16.9A68.13,68.13,0,0,1,404.58,287.8Zm18,0q0,18.21,8,28.61t23,10.4q15,0,23-10.4t8-28.61q0-18.2-8-28.41t-23-10.2q-15,0-23,10.2T422.59,287.8Z" transform="translate(-139.12 -197.98)"/><path class="a" d="M604.24,332q0,4.4-2,6t-6,1.6a9.93,9.93,0,0,1-6.1-1.6q-2.1-1.6-2.1-6v-9.2a35.8,35.8,0,0,1-12.7,13.2q-8.5,5.4-20.71,5.4a41.74,41.74,0,0,1-18.71-4,40.5,40.5,0,0,1-13.8-11.1,48.62,48.62,0,0,1-8.6-17,77,77,0,0,1-2.9-21.71,75.92,75.92,0,0,1,2.9-21.61,47.7,47.7,0,0,1,8.6-16.8,40,40,0,0,1,13.8-10.9,42.63,42.63,0,0,1,18.71-3.9,39.68,39.68,0,0,1,11.5,1.6,43.54,43.54,0,0,1,9.4,4,33.15,33.15,0,0,1,7.1,5.5,27.74,27.74,0,0,1,4.6,6.1V206q0-4.6,2.3-6.3a10.41,10.41,0,0,1,6.3-1.7,10,10,0,0,1,6.2,1.7q2.2,1.7,2.2,6.3ZM528.61,288.2q0,17.4,7.6,27.81t21.8,10.4a27.42,27.42,0,0,0,12.8-2.9,26.75,26.75,0,0,0,9.4-8.1,36.8,36.8,0,0,0,5.7-12.3,59.9,59.9,0,0,0,1.9-15.5q0-17.8-8-27.91t-22.41-10.1a27,27,0,0,0-12.6,2.8,25,25,0,0,0-9,7.9,36.54,36.54,0,0,0-5.4,12.2A64,64,0,0,0,528.61,288.2Z" transform="translate(-139.12 -197.98)"/><path class="a" d="M691.65,244.39q0-4.6,2.3-6.3a10.41,10.41,0,0,1,6.3-1.7,10,10,0,0,1,6.2,1.7q2.2,1.7,2.2,6.3V332q0,4.4-2,6t-6,1.6a9.93,9.93,0,0,1-6.1-1.6q-2.1-1.6-2.1-6v-9.6a32.74,32.74,0,0,1-7.6,9.6,41.44,41.44,0,0,1-10.6,6.6q-6.6,3-16.2,3a45.33,45.33,0,0,1-14.4-2.2,29.34,29.34,0,0,1-11.2-6.6,30.12,30.12,0,0,1-7.2-11.1,43.9,43.9,0,0,1-2.6-15.9V243.39q0-7,8.2-7,8.8,0,8.8,7v58.22q0,11.81,4.8,18t17.8,6.2a24.77,24.77,0,0,0,13.4-3.5,28.26,28.26,0,0,0,9.1-9.1,42.56,42.56,0,0,0,5.2-12.6,58.43,58.43,0,0,0,1.7-13.8ZM644,215.18a7.18,7.18,0,0,1-5.1-1.6q-1.7-1.6-1.7-6.2,0-4.2,1.5-6.1t5.5-1.9h44.41q4,0,5.5,1.9t1.5,6.1q0,4.6-1.8,6.2t-5.8,1.6Z" transform="translate(-139.12 -197.98)"/><path class="a" d="M727.06,206q0-4.6,2.2-6.3a10,10,0,0,1,6.2-1.7,10.41,10.41,0,0,1,6.3,1.7q2.3,1.7,2.3,6.3V331.61q0,4.6-2.3,6.3a10.42,10.42,0,0,1-6.3,1.7,10,10,0,0,1-6.2-1.7q-2.2-1.7-2.2-6.3Z" transform="translate(-139.12 -197.98)"/><path class="a" d="M761.67,331.81a12,12,0,0,1-3.1-3.5,7,7,0,0,1-.9-3.3,9.69,9.69,0,0,1,2.4-6.3,7.29,7.29,0,0,1,5.8-2.9,8.62,8.62,0,0,1,3.7.8,25.23,25.23,0,0,1,3.9,2.4,66.56,66.56,0,0,0,9.8,5.4q6.4,3,16,3,10.6,0,16.3-4.2a13.42,13.42,0,0,0,5.7-11.4,20.54,20.54,0,0,0-.6-5,10.35,10.35,0,0,0-2.7-4.6,18.23,18.23,0,0,0-6.1-3.9,45.46,45.46,0,0,0-10.8-2.7l-12.2-2q-13-2-21.31-9.2t-8.3-20.21q0-14.2,10.5-22t28.51-7.8a77,77,0,0,1,13.9,1.1,53.62,53.62,0,0,1,9.9,2.7,38.26,38.26,0,0,1,6.6,3.3,40.73,40.73,0,0,1,4,2.9q3.8,3.2,3.8,6.4a9.18,9.18,0,0,1-1.9,5.7,6.49,6.49,0,0,1-5.5,2.5,9.45,9.45,0,0,1-4.1-.9,47.41,47.41,0,0,1-4.5-2.5q-3.8-2.2-9.1-4.6t-13.9-2.4q-10.8,0-15.9,4a12.43,12.43,0,0,0-5.1,10.2,20.53,20.53,0,0,0,.6,5,10.46,10.46,0,0,0,2.5,4.5,16,16,0,0,0,5.6,3.7,37.52,37.52,0,0,0,9.9,2.4l12.4,2q15.4,2.2,23.11,9.5t7.7,20.5q0,14.61-10.2,22.91t-29.21,8.3a85.24,85.24,0,0,1-13.7-1,76.58,76.58,0,0,1-10.8-2.5,44.55,44.55,0,0,1-7.8-3.2A37.31,37.31,0,0,1,761.67,331.81Z" transform="translate(-139.12 -197.98)"/></svg>