<svg xmlns="http://www.w3.org/2000/svg" viewBox="0 0 444.15 201.69"><title>um_final_2016</title><path d="M289.6,369.86C301.72,329.8,318.12,269,361.19,269c13.6,0,21.5,11.25,25.2,26.65C398,280.24,411.88,269,426.19,269c14.08,0,22.52,10.82,26.56,24.94C463.25,279.85,476.59,269,490.87,269c34.27,0,35.5,32.06,27.12,51.19-2,4.6-6,7.61-10.57,6.64a7.85,7.85,0,0,1-5.81-10.14C505.9,303,504.55,290,490.87,290c-17.05,0-31.7,23.49-37.7,47.62-3,12.2-8.68,21.12-16,21.12-8.81,0-7.46-15.36-1.25-33.75,3.67-10.87,3.34-33.75-10.93-33.75-17.94,0-34,28-38.71,54.23-3.85,21.53-11.71,39.21-21.6,39.21-15,0-5.77-29.49-.75-45.69,8.17-26.37,5.33-45.87-6.5-46.5C333,291.18,322,333,310.89,369.89,298.77,410,282.37,470.72,239.31,470.72c-13.6,0-21.5-11.25-25.2-26.65-11.58,15.44-25.49,26.65-39.8,26.65-14.08,0-22.52-10.82-26.56-24.94-10.51,14.12-23.85,24.94-38.13,24.94-34.27,0-35.5-32.06-27.12-51.19,2-4.6,6-7.61,10.57-6.64A7.85,7.85,0,0,1,98.87,423c-4.27,13.7-2.93,26.75,10.75,26.75,17.05,0,31.7-23.49,37.7-47.62,3-12.2,8.68-21.12,16-21.12,8.81,0,7.46,15.36,1.25,33.75-3.67,10.87-3.34,33.75,10.93,33.75,17.94,0,34-28,38.71-54.23,3.85-21.53,11.71-39.21,21.6-39.21,15,0,5.77,29.49.75,45.69-8.17,26.37-5.33,45.87,6.5,46.5C267.53,448.57,278.44,406.74,289.6,369.86Z" transform="translate(-78.17 -269.03)"/></svg>