<svg xmlns="http://www.w3.org/2000/svg" viewBox="0 0 120 99.42"><defs><style>.a{fill:#231f20;}</style></defs><title>um_fb_logo</title><path d="M77.12,56.9c3.27-10.82,7.71-27.24,19.34-27.24,3.68,0,5.81,3,6.81,7.2,3.13-4.17,6.89-7.2,10.75-7.2s6.08,2.92,7.17,6.74c2.84-3.82,6.44-6.74,10.3-6.74,9.26,0,9.59,8.66,7.33,13.83A2.62,2.62,0,0,1,136,45.29a2.12,2.12,0,0,1-1.57-2.74c1.15-3.7.79-7.23-2.9-7.23-4.61,0-8.57,6.35-10.19,12.87-.82,3.3-2.35,5.71-4.34,5.71-2.38,0-2-4.15-.34-9.12,1-2.94.9-9.12-3-9.12-4.85,0-9.19,7.56-10.46,14.65-1,5.82-3.16,10.59-5.84,10.59-4.05,0-1.56-8-.2-12.34C99.4,41.43,98.63,36.16,95.43,36c-6.6-.35-9.54,11-12.56,20.92C79.6,67.74,75.17,84.15,63.53,84.15c-3.68,0-5.81-3-6.81-7.2-3.13,4.17-6.89,7.2-10.75,7.2s-6.08-2.92-7.17-6.74c-2.84,3.82-6.44,6.74-10.3,6.74-9.26,0-9.59-8.66-7.33-13.83A2.62,2.62,0,0,1,24,68.53a2.12,2.12,0,0,1,1.57,2.74c-1.15,3.7-.79,7.23,2.9,7.23,4.61,0,8.57-6.35,10.19-12.87.82-3.3,2.35-5.71,4.34-5.71,2.38,0,2,4.15.34,9.12-1,2.94-.9,9.12,3,9.12,4.85,0,9.19-7.56,10.46-14.65,1-5.82,3.16-10.59,5.84-10.59,4.05,0,1.56,8,.2,12.34-2.21,7.13-1.44,12.39,1.76,12.56C71.16,78.17,74.11,66.87,77.12,56.9Z" transform="translate(-20 -29.66)"/><path class="a" d="M34.78,122.81a5.67,5.67,0,0,1-2.48-.51,4.38,4.38,0,0,1-1.76-1.53v7.38q0,.93-.78.93a.81.81,0,0,1-.9-.93V107.86a1.12,1.12,0,0,1,.18-.72.89.89,0,0,1,.69-.21,1,1,0,0,1,.66.21.92.92,0,0,1,.24.72v8.7a9.88,9.88,0,0,0,.09,1.37,3.27,3.27,0,0,0,.33,1.09,3.88,3.88,0,0,0,1.4,1.44,4.13,4.13,0,0,0,2.3.63,5,5,0,0,0,2-.37,4.91,4.91,0,0,0,1.43-.92,4.38,4.38,0,0,0,.89-1.14,5.24,5.24,0,0,0,.44-1.05,7.17,7.17,0,0,0,.21-1.54q0-.86,0-1.4V108a1.32,1.32,0,0,1,.18-.78.91.91,0,0,1,.75-.24q.84,0,.84,1v11.31a2.39,2.39,0,0,0,.27,1.35,1,1,0,0,0,.87.36,1.92,1.92,0,0,0,.72-.12,1.55,1.55,0,0,1,.57-.12.53.53,0,0,1,.39.15,1.06,1.06,0,0,1,.15.69,1,1,0,0,1-.42.81,1.8,1.8,0,0,1-.74.28,5.4,5.4,0,0,1-.92.08,2.79,2.79,0,0,1-1.85-.58,2.66,2.66,0,0,1-.79-2,6.83,6.83,0,0,1-2.28,2.06A5.9,5.9,0,0,1,34.78,122.81Z" transform="translate(-20 -29.66)"/><path class="a" d="M48,106.06v15.36a1.07,1.07,0,0,1-.35.92,1.56,1.56,0,0,1-.95.25,1.49,1.49,0,0,1-.93-.25,1.09,1.09,0,0,1-.33-.92V102.91a1.42,1.42,0,0,1,.46-1.22,2.65,2.65,0,0,1,2.51-.06,2,2,0,0,1,.63.85l7,16.77,7-16.77a2,2,0,0,1,.62-.85,2.51,2.51,0,0,1,2.43.06,1.47,1.47,0,0,1,.44,1.22v18.51a1.09,1.09,0,0,1-.33.92,1.49,1.49,0,0,1-.93.25,1.56,1.56,0,0,1-.95-.25,1.07,1.07,0,0,1-.35-.92V106l-6.48,15.3a1.9,1.9,0,0,1-.54.72,1.79,1.79,0,0,1-2,0,1.9,1.9,0,0,1-.54-.72Z" transform="translate(-20 -29.66)"/><path class="a" d="M68.69,114.83a10.09,10.09,0,0,1,.53-3.38,7,7,0,0,1,1.5-2.52A6.45,6.45,0,0,1,73,107.35a8.61,8.61,0,0,1,6,0,6.46,6.46,0,0,1,2.33,1.58,7.07,7.07,0,0,1,1.5,2.52,10.1,10.1,0,0,1,.53,3.38,10.24,10.24,0,0,1-.53,3.39,7,7,0,0,1-1.5,2.54A6.61,6.61,0,0,1,79,122.34a8.4,8.4,0,0,1-6,0,6.6,6.6,0,0,1-2.33-1.59,7,7,0,0,1-1.5-2.54A10.23,10.23,0,0,1,68.69,114.83Zm2.7,0a6.88,6.88,0,0,0,1.2,4.29,4.6,4.6,0,0,0,6.9,0,6.88,6.88,0,0,0,1.2-4.29,6.75,6.75,0,0,0-1.2-4.26,4.66,4.66,0,0,0-6.9,0A6.75,6.75,0,0,0,71.39,114.83Z" transform="translate(-20 -29.66)"/><path class="a" d="M98.63,121.46a1.11,1.11,0,0,1-.3.9,1.42,1.42,0,0,1-.9.24,1.49,1.49,0,0,1-.92-.24,1.07,1.07,0,0,1-.32-.9v-1.38a5.37,5.37,0,0,1-1.91,2,5.68,5.68,0,0,1-3.11.81,6.26,6.26,0,0,1-2.81-.6,6.08,6.08,0,0,1-2.07-1.67A7.3,7.3,0,0,1,85,118.05a11.55,11.55,0,0,1-.44-3.26,11.39,11.39,0,0,1,.44-3.24A7.16,7.16,0,0,1,86.32,109a6,6,0,0,1,2.07-1.64,6.4,6.4,0,0,1,2.81-.58,5.94,5.94,0,0,1,1.72.24,6.51,6.51,0,0,1,1.41.6,4.92,4.92,0,0,1,1.06.83,4.1,4.1,0,0,1,.69.92v-6.84a1.11,1.11,0,0,1,.35-.95,1.56,1.56,0,0,1,.95-.25,1.49,1.49,0,0,1,.93.25,1.14,1.14,0,0,1,.33.95Zm-11.34-6.57a6.91,6.91,0,0,0,1.14,4.17,3.8,3.8,0,0,0,3.27,1.56,4.11,4.11,0,0,0,1.92-.44A4,4,0,0,0,95,119a5.49,5.49,0,0,0,.85-1.85,9,9,0,0,0,.29-2.33,6.58,6.58,0,0,0-1.2-4.19,4.47,4.47,0,0,0-5.25-1.09,3.75,3.75,0,0,0-1.35,1.18,5.49,5.49,0,0,0-.81,1.83A9.6,9.6,0,0,0,87.29,114.88Z" transform="translate(-20 -29.66)"/><path class="a" d="M111.75,108.31a1.11,1.11,0,0,1,.35-.95,1.56,1.56,0,0,1,.95-.26,1.49,1.49,0,0,1,.93.26,1.13,1.13,0,0,1,.33.95v13.14a1.1,1.1,0,0,1-.3.9,1.42,1.42,0,0,1-.9.24,1.49,1.49,0,0,1-.92-.24,1.07,1.07,0,0,1-.32-.9V120a4.9,4.9,0,0,1-1.14,1.44,6.2,6.2,0,0,1-1.59,1,5.85,5.85,0,0,1-2.43.45,6.77,6.77,0,0,1-2.16-.33,4.4,4.4,0,0,1-1.68-1,4.52,4.52,0,0,1-1.08-1.67,6.57,6.57,0,0,1-.39-2.39v-9.36q0-1.05,1.23-1.05t1.32,1.05v8.73a4.34,4.34,0,0,0,.72,2.7,3.21,3.21,0,0,0,2.67.93,3.71,3.71,0,0,0,2-.53,4.22,4.22,0,0,0,1.37-1.37,6.36,6.36,0,0,0,.78-1.89,8.75,8.75,0,0,0,.25-2.07Zm-7.14-4.38a1.07,1.07,0,0,1-.76-.24,1.27,1.27,0,0,1-.26-.93,1.48,1.48,0,0,1,.23-.92,1,1,0,0,1,.83-.29h6.66a1,1,0,0,1,.83.29,1.49,1.49,0,0,1,.22.92,1.22,1.22,0,0,1-.27.93,1.29,1.29,0,0,1-.87.24Z" transform="translate(-20 -29.66)"/><path class="a" d="M117.06,102.55a1.14,1.14,0,0,1,.33-.95,1.49,1.49,0,0,1,.93-.25,1.56,1.56,0,0,1,.95.25,1.11,1.11,0,0,1,.34.95V121.4a1.11,1.11,0,0,1-.34.95,1.56,1.56,0,0,1-.95.25,1.49,1.49,0,0,1-.93-.25,1.14,1.14,0,0,1-.33-.95Z" transform="translate(-20 -29.66)"/><path class="a" d="M122.25,121.43a1.82,1.82,0,0,1-.46-.53,1.06,1.06,0,0,1-.13-.5,1.45,1.45,0,0,1,.36-.95,1.09,1.09,0,0,1,.87-.44,1.3,1.3,0,0,1,.55.12,3.72,3.72,0,0,1,.58.36,10,10,0,0,0,1.47.81,5.65,5.65,0,0,0,2.4.45,4.07,4.07,0,0,0,2.45-.63,2,2,0,0,0,.85-1.71,3.06,3.06,0,0,0-.09-.75,1.55,1.55,0,0,0-.41-.69,2.72,2.72,0,0,0-.92-.58,6.82,6.82,0,0,0-1.62-.41l-1.83-.3a6.19,6.19,0,0,1-3.2-1.38,3.8,3.8,0,0,1-1.25-3,3.87,3.87,0,0,1,1.58-3.3,7,7,0,0,1,4.28-1.17,11.57,11.57,0,0,1,2.08.17,8,8,0,0,1,1.49.41,5.68,5.68,0,0,1,1,.5,6.1,6.1,0,0,1,.6.44,1.31,1.31,0,0,1,.57,1,1.38,1.38,0,0,1-.29.86,1,1,0,0,1-.83.38,1.4,1.4,0,0,1-.62-.14,6.89,6.89,0,0,1-.68-.37q-.57-.33-1.37-.69a5.1,5.1,0,0,0-2.08-.36,3.86,3.86,0,0,0-2.39.6,1.86,1.86,0,0,0-.77,1.53,3.11,3.11,0,0,0,.09.75,1.57,1.57,0,0,0,.38.67,2.4,2.4,0,0,0,.84.56,5.62,5.62,0,0,0,1.49.36l1.86.3a6.21,6.21,0,0,1,3.47,1.42,4,4,0,0,1,1.16,3.08,4.19,4.19,0,0,1-1.53,3.44,6.78,6.78,0,0,1-4.38,1.25,12.83,12.83,0,0,1-2.06-.15,11.6,11.6,0,0,1-1.62-.37,6.74,6.74,0,0,1-1.17-.48A5.7,5.7,0,0,1,122.25,121.43Z" transform="translate(-20 -29.66)"/></svg>